<?xml version="1.0" standalone="no"?>
<!DOCTYPE svg PUBLIC "-//W3C//DTD SVG 20010904//EN"
 "http://www.w3.org/TR/2001/REC-SVG-20010904/DTD/svg10.dtd">
<svg version="1.0" xmlns="http://www.w3.org/2000/svg"
 width="275.000000pt" height="183.000000pt" viewBox="0 0 275.000000 183.000000"
 preserveAspectRatio="xMidYMid meet">

<g transform="translate(0.000000,183.000000) scale(0.100000,-0.100000)"
fill="#000000" stroke="none">
<path d="M0 915 l0 -915 1375 0 1375 0 0 915 0 915 -1180 0 c-692 0 -1180 -4
-1180 -9 0 -5 -28 -18 -62 -30 -35 -11 -115 -38 -178 -60 -62 -22 -115 -39
-117 -37 -8 8 30 26 127 60 58 21 123 46 145 56 l40 19 -172 0 -173 1 0 -915z
m750 875 c11 -7 6 -10 -20 -10 -26 0 -31 3 -20 10 8 5 17 10 20 10 3 0 12 -5
20 -10z m295 -20 c3 -5 1 -10 -4 -10 -6 0 -11 5 -11 10 0 6 2 10 4 10 3 0 8
-4 11 -10z m340 -215 c-3 -11 -2 -14 1 -7 6 13 24 7 24 -9 0 -6 -4 -7 -10 -4
-5 3 -10 -2 -11 -12 0 -11 -5 -5 -12 14 -7 17 -15 35 -19 39 -5 4 -8 19 -8 33
l0 26 20 -30 c11 -16 18 -39 15 -50z m71 23 c4 -25 2 -29 -5 -18 -11 16 -15
68 -5 58 3 -4 8 -21 10 -40z m503 -132 c-11 -10 -89 -15 -89 -6 0 5 21 10 47
10 25 0 44 -2 42 -4z m-44 -38 c22 1 34 -1 27 -4 -6 -3 -9 -11 -5 -17 4 -7 0
-7 -9 1 -9 8 -25 13 -35 12 -31 -4 -43 0 -43 11 0 5 5 7 12 3 7 -5 31 -7 53
-6z m85 -43 c0 -39 -8 -65 -21 -65 -4 0 -7 24 -6 54 1 38 6 52 14 49 7 -3 13
-20 13 -38z m-490 -24 c0 -10 -26 -9 -36 2 -4 4 2 7 14 7 12 0 22 -4 22 -9z
m-23 -73 c-3 -8 -6 -5 -6 6 -1 11 2 17 5 13 3 -3 4 -12 1 -19z m510 16 c-3 -3
-12 -4 -19 -1 -8 3 -5 6 6 6 11 1 17 -2 13 -5z m-105 -57 c-3 -23 -11 -46 -19
-51 -11 -6 -12 -10 -3 -16 9 -5 8 -11 -3 -22 -13 -13 -5 -15 67 -16 88 -1 172
17 169 35 -2 7 3 10 10 7 9 -3 13 -53 16 -185 l3 -180 -36 22 c-32 19 -36 25
-36 63 0 23 5 47 12 54 9 9 9 12 -3 12 -9 0 -19 -3 -23 -7 -10 -11 -66 -11
-60 -1 6 9 -24 23 -32 15 -3 -3 -2 -11 2 -19 13 -20 4 -92 -12 -105 -9 -6 -15
-20 -14 -30 4 -35 0 -54 -10 -48 -6 4 -8 16 -5 28 2 12 2 17 -1 10 -3 -6 -16
-9 -30 -7 -13 2 -24 1 -25 -3 -3 -36 1 -133 5 -155 6 -27 -8 -40 -16 -16 -5
15 -48 -26 -48 -47 0 -8 -4 -15 -10 -15 -5 0 -10 -7 -10 -15 0 -8 5 -15 10
-15 6 0 10 -9 10 -20 0 -22 -31 -41 -38 -22 -2 6 -10 8 -18 5 -8 -3 -22 3 -30
13 -14 18 -15 17 -11 -9 2 -15 1 -30 -4 -33 -5 -3 0 -22 11 -42 11 -20 20 -42
20 -49 0 -6 6 -13 13 -16 18 -6 38 4 30 16 -3 6 -1 7 5 3 21 -13 13 -36 -12
-36 -18 0 -25 -7 -30 -30 -8 -41 -99 -136 -143 -151 -41 -13 -87 -3 -170 38
-58 29 -58 32 -2 83 26 23 43 49 85 125 l16 30 -29 -28 c-16 -15 -40 -47 -51
-70 -12 -23 -34 -55 -48 -71 -26 -29 -27 -29 -40 -11 -26 36 -14 91 29 136 22
23 31 36 19 30 -23 -12 -99 -18 -109 -8 -3 4 6 7 20 7 15 0 27 5 27 10 0 6 20
19 44 29 50 22 78 49 102 100 21 43 30 121 13 104 -12 -12 -15 -10 -64 32 -12
11 -29 22 -36 24 -27 6 -94 11 -81 5 19 -9 14 -21 -13 -28 -14 -4 -25 -11 -25
-16 0 -5 8 -6 17 -3 14 5 12 0 -6 -26 -13 -18 -30 -35 -37 -38 -8 -3 -14 -10
-14 -15 0 -5 -8 -17 -18 -26 -9 -10 -13 -14 -8 -9 17 12 26 8 26 -12 0 -16 8
-18 58 -17 59 1 91 18 114 60 10 18 9 18 -13 2 -26 -18 -43 -21 -34 -6 3 6 -1
10 -9 10 -8 0 -18 -9 -21 -20 -9 -28 -29 -25 -43 5 -16 34 -17 30 22 69 28 29
39 35 66 31 61 -7 104 -53 92 -98 -2 -10 -21 -26 -41 -37 -28 -15 -32 -19 -15
-20 12 0 27 7 34 15 22 27 32 16 11 -13 -11 -16 -50 -43 -86 -61 -66 -33 -105
-37 -160 -17 -11 4 -4 -2 16 -13 44 -24 87 -73 96 -109 9 -37 -11 -146 -33
-176 -27 -36 -53 -45 -151 -51 -49 -3 -115 -8 -148 -11 -184 -20 -422 -24
-433 -8 -4 6 -14 13 -23 16 -8 3 -37 50 -63 104 -54 113 -113 207 -126 199
-24 -15 -27 86 -4 106 15 12 16 11 9 -11 -4 -14 -4 -22 0 -18 9 8 43 -24 74
-69 12 -18 26 -33 31 -33 10 0 -20 63 -32 68 -5 2 -8 10 -8 18 0 8 -7 17 -15
20 -8 4 -15 12 -15 20 0 8 -6 14 -12 15 -10 0 -10 2 -1 6 18 7 -1 40 -27 48
-15 5 -20 15 -20 43 1 99 49 123 260 131 218 9 300 -3 390 -56 3 -2 5 23 6 55
0 63 19 110 64 161 17 19 33 45 36 58 4 13 16 29 27 35 17 9 24 7 38 -10 22
-28 119 -28 119 0 0 9 -5 20 -10 23 -6 4 -7 13 -1 23 13 24 12 35 -5 53 -13
14 -9 14 46 1 33 -8 63 -13 65 -10 3 2 12 35 21 71 15 60 19 67 42 67 24 0 25
-1 17 -52 -12 -93 -12 -93 17 -96 26 -3 26 -2 16 32 -6 19 -7 43 -3 53 7 17 8
17 15 -2 5 -11 9 -35 9 -54 l1 -34 70 5 c39 3 73 8 75 10 3 3 -2 21 -10 41
-21 51 -18 67 6 35 24 -33 39 -36 39 -8 0 17 3 18 25 8 20 -9 25 -19 25 -45 0
-19 -4 -32 -8 -29 -22 13 -73 -54 -96 -126 -8 -25 33 -47 46 -24 7 12 14 14
28 6 10 -5 25 -7 33 -4 8 3 18 0 23 -7 5 -8 3 -10 -6 -4 -8 5 -11 3 -8 -6 6
-18 93 -24 141 -11 l34 10 -8 -37 c-5 -20 -9 -39 -9 -43 0 -5 -7 -8 -15 -8 -8
0 -15 -4 -15 -10 0 -19 32 -10 37 10 3 11 9 20 14 20 5 0 9 27 9 60 0 72 -25
128 -70 160 -26 18 -30 28 -30 65 0 36 4 45 22 51 20 6 21 7 4 19 -14 11 -15
17 -6 34 6 12 8 25 5 30 -6 10 15 20 30 14 6 -2 9 -22 7 -46z m51 46 c-19 -7
-16 -54 5 -69 16 -13 16 -13 0 -14 -13 0 -18 -9 -19 -32 -1 -54 -17 -2 -18 58
-1 54 3 64 28 63 10 0 12 -2 4 -6z m64 -43 c8 0 13 -6 10 -12 -2 -7 2 -28 9
-46 7 -18 9 -30 5 -27 -14 8 -51 93 -50 112 1 12 3 11 6 -4 2 -13 11 -23 20
-23z m-60 8 c-3 -8 -6 -5 -6 6 -1 11 2 17 5 13 3 -3 4 -12 1 -19z m-447 -28
c-19 -13 -30 -13 -30 0 0 6 10 10 23 10 18 0 19 -2 7 -10z m61 -37 c41 -67 49
-91 34 -97 -16 -6 -30 28 -19 45 4 7 3 9 -3 6 -5 -3 -17 14 -26 39 -9 24 -14
44 -13 44 2 0 14 -17 27 -37z m207 -12 c3 -8 -1 -12 -9 -9 -7 2 -15 10 -17 17
-3 8 1 12 9 9 7 -2 15 -10 17 -17z m-234 -40 c3 -5 -1 -11 -9 -15 -9 -3 -15 0
-15 9 0 16 16 20 24 6z m236 -27 c0 -8 -4 -14 -10 -14 -5 0 -10 9 -10 21 0 11
5 17 10 14 6 -3 10 -13 10 -21z m-10 -34 c-13 -9 -13 -10 1 -10 13 0 14 -9 9
-50 -3 -27 -10 -53 -14 -57 -4 -5 -4 5 0 21 6 25 4 28 -9 23 -22 -8 -32 10
-15 30 9 12 9 15 1 9 -7 -4 -13 -4 -13 0 0 12 32 44 44 44 6 0 4 -5 -4 -10z
m86 -17 c16 -26 16 -27 0 -14 -16 13 -18 13 -16 0 1 -7 2 -22 1 -33 -1 -16 -3
-17 -17 -5 -15 12 -16 11 -10 -9 5 -13 3 -22 -3 -22 -6 0 -11 6 -12 13 0 6 -2
23 -5 36 -2 13 0 29 6 36 5 6 7 15 3 18 -3 4 3 7 14 7 12 0 29 -12 39 -27z
m14 -37 c0 -3 -4 -8 -10 -11 -5 -3 -10 -1 -10 4 0 6 5 11 10 11 6 0 10 -2 10
-4z m-22 -86 c4 -13 3 -13 -10 -2 -13 10 -17 10 -21 0 -3 -8 -6 -6 -6 5 -1 22
30 20 37 -3z m153 -73 c-8 -8 -11 -4 -11 14 0 33 14 47 18 19 2 -12 -1 -27 -7
-33z m13 -32 c-6 -15 4 -19 37 -16 8 1 24 -8 34 -19 19 -21 19 -21 -10 -16
-16 3 -36 0 -44 -7 -14 -10 -14 -10 -3 4 10 14 10 18 -2 22 -19 8 -28 -6 -19
-30 4 -12 0 -10 -14 7 -24 30 -27 61 -5 52 10 -3 13 -1 8 6 -4 7 -1 12 8 12
10 0 13 -6 10 -15z m36 11 c0 -3 -4 -8 -10 -11 -5 -3 -10 -1 -10 4 0 6 5 11
10 11 6 0 10 -2 10 -4z m60 -81 c-7 -8 -17 -15 -23 -15 -6 0 -2 7 9 15 25 19
30 19 14 0z m-125 -40 c0 -13 6 -20 18 -19 9 1 17 -2 17 -8 0 -5 5 -6 12 -2 6
4 24 8 40 8 25 1 28 -3 28 -28 0 -31 30 -105 43 -106 4 0 7 7 7 15 0 21 32 35
80 35 27 0 48 7 63 21 20 18 22 19 25 3 3 -14 12 -16 50 -11 51 5 113 -12 120
-33 3 -7 0 -10 -5 -7 -5 3 -10 -1 -10 -9 0 -8 11 -17 24 -20 27 -7 41 -35 38
-78 -2 -32 -34 -61 -42 -38 -3 6 -13 12 -23 12 -11 0 -23 7 -28 17 -8 14 -11
13 -22 -8 -8 -13 -14 -26 -14 -28 -1 -2 -24 -4 -52 -4 -46 0 -53 -3 -74 -34
-12 -18 -25 -31 -28 -28 -3 3 -11 0 -18 -6 -23 -19 -72 16 -84 60 -8 32 -16
41 -40 46 -16 4 -32 11 -35 16 -10 15 -45 10 -45 -6 0 -21 -56 -75 -77 -75
-15 0 -16 2 -3 10 8 5 10 10 5 10 -6 0 -16 -5 -23 -12 -9 -9 -12 -2 -11 32 1
35 3 39 8 19 6 -25 7 -25 39 -12 33 14 45 39 15 31 -13 -4 -18 2 -19 19 -1 12
2 23 7 23 5 0 9 -8 9 -17 0 -9 3 -13 7 -9 4 4 6 39 5 79 -2 57 -7 76 -23 92
-17 17 -19 17 -13 3 4 -13 1 -18 -11 -18 -13 0 -16 6 -11 23 3 12 6 28 6 35 0
6 8 12 18 13 15 0 14 2 -3 10 -18 8 -18 8 5 6 18 -1 25 -8 25 -22z m-69 -22
c-4 -58 -17 -113 -27 -113 -12 0 -11 17 2 41 7 15 7 24 -1 34 -8 10 -8 19 -1
33 7 13 7 22 -1 30 -9 9 -7 12 9 12 18 0 21 -5 19 -37z m158 29 c2 -4 -4 -8
-15 -8 -10 0 -19 4 -19 8 0 10 27 10 34 0z m393 -87 c0 -10 -6 -14 -14 -10 -8
3 -19 5 -24 5 -6 0 -7 5 -4 10 10 16 42 12 42 -5z"/>
<path d="M1708 827 c5 -100 10 -107 11 -15 1 42 -2 79 -7 82 -4 2 -6 -28 -4
-67z"/>
<path d="M1061 694 c0 -11 3 -14 6 -6 3 7 2 16 -1 19 -3 4 -6 -2 -5 -13z"/>
<path d="M1571 600 c20 -31 42 -39 37 -14 -2 11 -8 19 -13 19 -6 0 -17 5 -25
10 -13 8 -13 5 1 -15z"/>
<path d="M1620 592 c0 -5 -3 -17 -6 -25 -3 -9 2 -20 15 -26 18 -10 19 -9 11
20 -10 34 -20 50 -20 31z"/>
<path d="M1135 490 c10 -11 20 -20 23 -20 3 0 -3 9 -13 20 -10 11 -20 20 -23
20 -3 0 3 -9 13 -20z"/>
<path d="M1479 463 c-13 -16 -12 -17 4 -4 16 13 21 21 13 21 -2 0 -10 -8 -17
-17z"/>
<path d="M1567 375 c-4 -9 -11 -14 -16 -11 -5 3 -11 -4 -14 -15 -3 -12 -10
-18 -16 -14 -6 3 -11 -1 -11 -9 0 -9 -4 -16 -10 -16 -5 0 -10 -4 -10 -9 0 -18
31 -4 55 23 21 24 30 28 65 24 22 -2 40 0 40 4 0 5 -13 8 -30 8 -16 0 -33 7
-38 16 -8 15 -10 15 -15 -1z"/>
<path d="M476 347 c3 -10 9 -15 12 -12 3 3 0 11 -7 18 -10 9 -11 8 -5 -6z"/>
<path d="M510 303 c15 -23 79 -63 101 -63 8 1 1 8 -16 17 -16 9 -45 28 -64 42
-31 23 -33 24 -21 4z"/>
<path d="M1195 300 c3 -5 8 -10 11 -10 2 0 4 5 4 10 0 6 -5 10 -11 10 -5 0 -7
-4 -4 -10z"/>
<path d="M1646 278 c-20 -38 -21 -57 -2 -38 13 15 31 70 22 70 -3 0 -12 -14
-20 -32z"/>
<path d="M1605 230 c-3 -5 -1 -10 4 -10 6 0 11 5 11 10 0 6 -2 10 -4 10 -3 0
-8 -4 -11 -10z"/>
<path d="M2415 590 c-3 -5 -1 -10 4 -10 6 0 11 5 11 10 0 6 -2 10 -4 10 -3 0
-8 -4 -11 -10z"/>
<path d="M2313 579 c1 -7 -13 -16 -32 -21 -41 -11 -39 -14 22 -21 33 -5 46 -3
42 4 -4 6 -1 9 6 8 22 -5 60 12 53 22 -4 6 -11 5 -20 -2 -12 -10 -17 -9 -27 1
-10 10 -9 12 6 7 9 -4 17 -2 17 3 0 6 -16 10 -35 10 -21 0 -34 -5 -32 -11z"/>
<path d="M2170 571 c0 -6 17 -7 38 -4 51 8 53 13 4 13 -23 0 -42 -4 -42 -9z"/>
<path d="M2178 543 c7 -3 16 -2 19 1 4 3 -2 6 -13 5 -11 0 -14 -3 -6 -6z"/>
<path d="M2125 496 c-18 -13 -18 -14 8 -9 15 3 27 9 27 14 0 13 -13 11 -35 -5z"/>
</g>
</svg>
