<?xml version="1.0" standalone="no"?>
<!DOCTYPE svg PUBLIC "-//W3C//DTD SVG 20010904//EN"
 "http://www.w3.org/TR/2001/REC-SVG-20010904/DTD/svg10.dtd">
<svg version="1.0" xmlns="http://www.w3.org/2000/svg"
 width="259.000000pt" height="194.000000pt" viewBox="0 0 259.000000 194.000000"
 preserveAspectRatio="xMidYMid meet">

<g transform="translate(0.000000,194.000000) scale(0.100000,-0.100000)"
fill="#000000" stroke="none">
<path d="M2380 1920 c-36 -11 -96 -28 -135 -39 -38 -11 -112 -34 -163 -50 -52
-17 -100 -31 -108 -31 -9 0 -12 -5 -8 -11 4 -8 -1 -9 -15 -4 -13 4 -31 1 -44
-8 -12 -8 -38 -17 -57 -20 -19 -3 -60 -12 -90 -19 l-55 -15 37 -7 c30 -7 35
-11 25 -21 -10 -11 -15 -10 -29 2 -25 23 -59 20 -188 -14 -97 -26 -124 -29
-175 -22 -122 15 -114 20 -117 -68 -3 -67 -5 -78 -20 -77 -10 1 -18 -3 -18
-10 0 -6 -5 -3 -11 7 -6 9 -7 27 -3 40 4 15 3 19 -4 12 -12 -12 -21 -115 -9
-115 4 0 7 9 7 20 0 11 5 20 11 20 12 0 2 -42 -13 -51 -5 -3 -6 -14 -2 -23 4
-11 1 -22 -7 -27 -9 -6 -10 -9 -2 -9 14 0 11 -67 -4 -95 -9 -15 -10 -9 -9 28
1 26 -3 47 -7 47 -5 0 -6 7 -3 15 3 9 -1 18 -9 21 -8 4 -12 10 -9 15 3 5 9 7
14 4 5 -3 11 -1 15 4 3 6 -3 8 -15 6 -13 -2 -24 4 -32 18 -10 20 -10 21 6 8
14 -12 16 -12 10 3 -3 9 -10 16 -15 16 -5 0 -9 7 -9 15 0 8 4 15 8 15 5 0 9
14 9 32 0 29 -1 30 -10 10 -9 -20 -11 -21 -23 -4 -12 15 -13 14 -14 -11 0 -15
-7 -30 -15 -33 -12 -5 -13 -10 -4 -20 8 -10 8 -14 0 -14 -6 0 -11 -11 -11 -25
0 -14 -4 -25 -10 -25 -5 0 -10 5 -10 11 0 6 -7 4 -15 -5 -31 -31 -55 7 -55 87
0 24 -3 28 -12 19 -7 -7 -22 -12 -35 -12 -15 0 -23 -6 -23 -16 0 -14 -2 -15
-17 -3 -11 10 -14 10 -9 2 4 -7 2 -13 -3 -13 -6 0 -11 -9 -11 -20 0 -11 -4
-20 -9 -20 -5 0 -16 -3 -25 -6 -9 -3 -16 -1 -16 6 0 6 4 9 8 6 17 -10 29 11
40 68 14 68 13 67 41 69 13 1 21 8 21 19 0 26 -30 35 -45 15 -7 -10 -17 -17
-24 -17 -6 0 -11 -4 -11 -10 0 -5 5 -10 10 -10 6 0 10 -4 10 -10 0 -21 -19 -9
-31 19 -9 20 -16 26 -21 18 -5 -8 -8 -7 -8 4 0 17 -9 19 -111 33 -19 3 -109
26 -198 51 -89 25 -189 48 -222 52 -38 4 -59 10 -59 19 0 9 11 11 37 8 34 -4
36 -3 13 6 -14 6 -44 12 -66 13 -28 1 -40 6 -37 15 4 8 -6 12 -32 12 -21 0
-34 4 -30 10 3 5 -3 10 -13 10 -11 0 -34 3 -51 6 l-31 7 0 -797 c0 -714 2
-796 16 -796 8 0 12 5 9 10 -3 6 1 10 9 10 18 0 21 -16 6 -25 -21 -13 -9 -25
12 -13 13 7 27 11 31 10 5 -1 6 2 3 7 -3 5 1 24 10 42 12 27 14 28 10 8 -5
-23 -2 -25 33 -27 35 -2 39 0 46 25 4 17 2 29 -4 31 -6 2 -11 8 -11 13 0 4 7
6 16 2 11 -4 14 -16 11 -47 -6 -51 -71 -133 -93 -115 -8 7 -14 6 -20 -2 -5 -8
-3 -10 7 -5 8 4 5 0 -5 -8 -17 -14 -17 -16 -3 -16 9 0 20 -7 25 -16 9 -15 12
-15 39 1 16 10 37 29 46 44 16 25 16 22 17 -81 l0 -108 510 0 c473 0 535 3
500 25 -5 3 -45 50 -89 103 -43 53 -87 107 -97 119 -11 12 -44 54 -74 92 -30
39 -59 70 -64 71 -5 0 -3 -6 3 -14 10 -11 8 -16 -9 -21 -28 -9 -30 -6 -35 55
-6 88 -25 85 -25 -4 0 -49 -4 -75 -10 -71 -5 3 -10 -1 -10 -9 0 -9 5 -16 10
-16 17 0 11 -28 -7 -39 -15 -8 -15 -11 -3 -12 8 -1 21 -2 29 -3 8 0 16 -11 18
-24 3 -21 2 -22 -13 -8 -22 22 -25 20 -13 -10 5 -15 7 -29 4 -32 -3 -3 -5 -1
-5 5 0 21 -56 72 -90 82 -19 5 -27 10 -17 10 20 1 24 31 3 31 -8 0 -16 7 -20
15 -3 9 0 15 9 15 8 0 15 4 15 9 0 5 -9 7 -19 4 -16 -4 -19 -1 -15 15 4 12 0
22 -10 25 -9 4 -25 21 -36 39 -11 18 -20 26 -20 18 -1 -12 -3 -11 -11 3 -5 9
-7 22 -4 27 3 6 -1 10 -9 10 -9 0 -16 -4 -16 -10 0 -16 52 -125 64 -132 6 -4
8 -8 3 -8 -4 0 2 -18 13 -41 12 -23 19 -43 16 -46 -7 -8 -106 201 -106 226 0
12 6 21 15 21 8 0 15 5 15 10 0 6 -6 10 -12 10 -9 0 -8 4 2 10 12 8 11 10 -6
10 -28 0 -40 47 -14 55 13 4 18 17 18 51 1 42 -1 45 -28 51 -44 8 -37 19 25
42 71 27 73 26 81 -6 18 -82 23 -88 21 -28 -1 43 2 60 11 59 6 -1 35 -2 63 -2
27 -1 48 -6 45 -11 -6 -9 35 -24 43 -16 2 3 -1 5 -7 5 -7 0 -12 5 -12 10 0 6
8 10 19 10 14 0 18 -6 16 -25 -2 -15 2 -25 10 -25 7 0 12 10 11 22 -1 19 5 23
34 25 38 2 117 -23 138 -44 18 -17 25 -16 18 2 -3 8 -2 15 2 15 4 0 14 13 23
29 13 22 29 31 69 41 48 11 55 11 98 -11 26 -13 55 -30 65 -38 11 -9 24 -16
30 -17 33 -3 38 -5 33 -13 -7 -10 73 -47 92 -43 9 2 11 -1 6 -9 -5 -9 -2 -10
12 -5 10 4 15 4 11 0 -8 -8 57 -44 79 -44 6 0 17 -6 23 -14 7 -8 41 -26 75
-40 60 -23 166 -85 211 -121 19 -16 0 -6 -102 52 -69 40 -49 19 25 -26 115
-69 140 -108 117 -183 -6 -16 -4 -20 7 -16 11 5 14 -7 16 -54 2 -53 0 -60 -18
-65 -19 -5 -19 -6 -3 -19 14 -9 15 -16 7 -24 -19 -19 -49 -7 -48 18 0 12 -4
22 -9 22 -9 0 -3 82 10 118 4 12 3 14 -5 7 -18 -18 -30 -82 -22 -125 9 -49 -4
-59 -50 -40 -23 9 -31 21 -36 49 -8 49 -28 77 -67 97 -17 10 -101 62 -185 116
-84 54 -158 96 -164 92 -6 -4 -8 -3 -5 3 8 14 -42 47 -67 45 -10 0 -16 2 -12
5 13 13 -17 33 -43 28 -17 -4 -20 -3 -9 2 15 7 8 16 -40 51 -61 45 -70 47
-135 33 -23 -5 -71 -15 -107 -21 -149 -26 -158 -30 -152 -53 9 -39 23 -49 39
-30 13 16 13 16 4 -4 -11 -22 9 -52 85 -133 13 -14 51 -59 84 -100 34 -41 76
-91 94 -110 40 -45 137 -170 143 -187 4 -10 133 -13 664 -13 l659 0 0 188 0
188 -29 11 c-16 6 -41 29 -55 52 -14 22 -45 60 -69 84 -47 49 -79 63 -412 179
-304 106 -340 118 -413 137 l-67 17 2 304 c1 167 6 307 10 311 14 13 127 23
119 10 -4 -6 -26 -11 -49 -11 -71 0 -71 1 -64 -174 3 -86 2 -156 -3 -156 -4 0
-9 -63 -9 -141 l-2 -140 48 7 c26 3 88 15 137 25 49 11 91 19 93 19 2 0 3 5 3
10 0 6 -8 10 -17 10 -13 0 -14 3 -6 8 10 7 10 11 0 24 -12 16 -28 22 -55 19
-12 -1 -37 -48 -34 -63 1 -5 -7 -8 -17 -8 -11 0 -23 -4 -26 -10 -12 -20 -24
-9 -20 18 3 15 9 128 14 251 7 169 12 226 23 232 7 5 79 9 161 9 121 0 147 -3
147 -14 0 -12 17 -15 80 -15 45 0 80 4 80 10 0 5 9 4 20 -3 11 -7 20 -18 20
-25 0 -8 19 -11 65 -9 38 2 65 -1 65 -7 0 -5 6 -5 13 2 8 6 38 9 70 7 32 -2
57 1 57 6 0 5 9 4 19 -2 13 -7 20 -7 23 1 2 6 16 5 38 -5 l35 -15 -85 -2 c-47
-1 -89 0 -95 1 -15 3 -33 2 -134 -5 -65 -5 -91 -3 -86 4 3 6 -1 11 -9 11 -9 0
-16 -6 -16 -14 0 -17 62 -25 120 -15 19 3 46 2 60 -1 14 -3 42 -3 63 1 20 3
37 2 37 -3 0 -5 7 -5 17 1 10 5 26 5 41 0 15 -6 21 -5 17 1 -8 13 1 13 26 0
12 -7 19 -7 19 -1 0 6 7 8 15 5 11 -5 15 1 15 24 0 17 -6 33 -12 35 -10 4 -10
6 -1 6 9 1 12 70 13 276 l0 275 -72 -1 c-40 0 -102 -9 -138 -19z m-347 -137
c-7 -2 -19 -2 -25 0 -7 3 -2 5 12 5 14 0 19 -2 13 -5z m-200 -53 c-19 -11 -40
-17 -50 -13 -12 5 -7 10 23 19 57 17 63 16 27 -6z m46 -14 c-2 -2 -17 -6 -34
-10 -22 -5 -26 -4 -15 4 14 9 59 15 49 6z m-979 -106 c0 -5 -2 -10 -4 -10 -3
0 -8 5 -11 10 -3 6 -1 10 4 10 6 0 11 -4 11 -10z m-72 -65 c-3 -3 -9 2 -12 12
-6 14 -5 15 5 6 7 -7 10 -15 7 -18z m-381 -15 c33 0 25 -9 -10 -12 -37 -3 -34
-18 3 -18 27 0 35 -8 31 -32 0 -5 4 -8 9 -8 6 0 10 8 8 18 -2 12 3 16 16 14
11 -2 15 1 11 7 -3 6 -13 11 -22 11 -9 0 -14 3 -10 6 3 3 37 1 75 -6 77 -13
82 -18 82 -92 0 -20 4 -38 9 -40 6 -1 13 -81 17 -176 l7 -174 24 5 c15 3 23 0
23 -9 0 -9 -12 -14 -36 -14 -34 0 -35 -1 -32 -32 3 -33 3 -33 68 -39 39 -3 50
-6 28 -7 -20 -1 -40 -7 -44 -14 -5 -7 -3 -8 6 -3 9 5 11 4 6 -4 -5 -7 -16 -9
-28 -5 -13 4 -18 2 -14 -4 3 -6 -4 -5 -19 1 -13 7 -33 28 -44 47 -11 19 -32
47 -48 62 -28 26 -104 53 -127 45 -7 -3 -11 9 -12 32 -1 20 -7 101 -13 180
-21 248 -21 273 -4 267 8 -3 26 -6 40 -6z m1986 3 c-7 -2 -21 -2 -30 0 -10 3
-4 5 12 5 17 0 24 -2 18 -5z m-1586 -9 c-3 -3 -12 -4 -19 -1 -8 3 -5 6 6 6 11
1 17 -2 13 -5z m1673 -20 c0 -2 -7 -4 -15 -4 -8 0 -15 4 -15 10 0 5 7 7 15 4
8 -4 15 -8 15 -10z m-47 -1 c-7 -2 -19 -2 -25 0 -7 3 -2 5 12 5 14 0 19 -2 13
-5z m-1225 -24 c-10 -5 -15 -16 -12 -24 4 -8 1 -15 -5 -15 -6 0 -11 6 -11 14
0 18 30 49 39 41 3 -4 -2 -11 -11 -16z m1139 15 c-3 -3 -12 -4 -19 -1 -8 3 -5
6 6 6 11 1 17 -2 13 -5z m-1550 -26 c-3 -8 -6 -5 -6 6 -1 11 2 17 5 13 3 -3 4
-12 1 -19z m1480 16 c-3 -3 -12 -4 -19 -1 -8 3 -5 6 6 6 11 1 17 -2 13 -5z
m113 -26 c0 -6 -6 -5 -15 2 -8 7 -15 14 -15 16 0 2 7 1 15 -2 8 -4 15 -11 15
-16z m89 6 c2 -2 -14 -4 -37 -4 -23 0 -42 4 -42 9 0 9 69 4 79 -5z m-1268 -42
c-6 -2 -11 -17 -11 -33 0 -18 4 -28 10 -24 18 11 12 -93 -7 -115 -10 -11 -20
-20 -24 -20 -3 0 -4 26 -3 58 2 31 3 76 4 100 0 30 4 42 15 42 8 0 16 10 16
23 2 21 2 20 6 -3 3 -13 0 -26 -6 -28z m1098 32 c10 -9 -45 -3 -59 6 -11 7 -5
8 20 4 19 -4 37 -8 39 -10z m38 0 c-3 -3 -12 -4 -19 -1 -8 3 -5 6 6 6 11 1 17
-2 13 -5z m-117 -14 c-17 -11 -16 -11 20 -15 14 -1 28 2 32 9 5 8 8 8 8 0 0
-6 14 -11 30 -12 17 0 30 3 30 8 0 5 19 7 42 4 28 -3 44 -1 49 8 7 11 9 11 9
0 0 -7 5 -10 10 -7 6 3 10 1 10 -4 0 -6 -17 -11 -37 -11 -21 0 -77 -3 -124 -6
-58 -4 -89 -3 -93 5 -9 14 1 31 17 31 7 0 6 -4 -3 -10z m298 -17 c-10 -2 -26
-2 -35 0 -10 3 -2 5 17 5 19 0 27 -2 18 -5z m-23 -36 c6 -4 -36 -7 -92 -6 -57
1 -103 5 -103 9 0 4 36 6 80 5 44 -2 83 2 86 7 3 5 9 6 13 1 3 -4 11 -11 16
-16z m-1640 -69 c4 -43 11 -78 16 -78 5 0 9 -6 9 -14 0 -9 7 -12 20 -9 11 3
20 1 20 -4 0 -5 -15 -9 -32 -8 -25 0 -33 4 -32 18 2 25 -42 23 -49 -3 -3 -11
-11 -20 -18 -20 -10 0 -10 3 -1 12 7 7 12 19 11 28 0 10 -2 11 -6 3 -3 -9 -10
-10 -22 -3 -10 5 -20 7 -22 5 -3 -2 -6 25 -7 61 -4 81 6 96 64 93 l42 -3 7
-78z m223 74 c18 -12 27 -104 13 -130 -10 -18 -21 -22 -61 -22 -28 0 -50 5
-50 10 0 6 -8 11 -17 11 -16 1 -16 2 0 6 16 4 18 14 15 69 l-3 64 45 0 c25 0
51 -4 58 -8z m1210 -10 c2 -8 -12 -12 -47 -12 -28 0 -51 4 -51 8 0 5 13 7 29
4 16 -2 32 1 36 8 8 13 27 9 33 -8z m-1358 -136 c0 -2 -7 -6 -15 -10 -8 -3
-15 -1 -15 4 0 6 7 10 15 10 8 0 15 -2 15 -4z m-762 -12 c12 -4 22 -13 22 -21
0 -8 4 -12 9 -9 5 3 11 -11 15 -32 9 -54 7 -84 -4 -77 -8 5 -5 -169 5 -217 4
-22 7 -21 -45 -3 -53 19 -84 20 -73 3 4 -7 8 -17 9 -23 1 -5 7 -28 12 -50 21
-77 45 -220 43 -259 -2 -38 -1 -39 29 -33 l30 6 0 -79 c0 -46 -4 -81 -10 -81
-5 -1 -16 -2 -22 -3 -7 -1 -16 -5 -20 -10 -9 -13 -22 60 -12 75 5 9 1 11 -14
7 -19 -5 -22 -2 -23 30 -2 62 -4 72 -14 72 -5 1 -13 -9 -17 -22 -5 -21 -6 -20
-7 6 -1 16 -7 37 -15 45 -8 9 -26 88 -40 175 -27 165 -25 192 13 182 9 -2 31
-7 49 -11 29 -6 32 -4 32 17 0 13 -7 31 -14 41 -14 18 -14 18 -18 0 -2 -10 -7
6 -11 35 -4 28 -12 52 -17 52 -6 0 -10 -7 -10 -15 0 -8 -7 -15 -16 -15 -13 0
-14 2 0 21 9 14 13 33 9 50 -4 20 -1 29 8 29 10 0 10 3 1 12 -7 7 -12 24 -12
39 0 23 6 28 47 39 37 11 43 15 27 21 -16 7 -16 8 6 8 14 0 35 -2 48 -5z m882
-11 c23 -5 24 -6 5 -13 -19 -8 -19 -9 2 -9 12 -1 24 -9 27 -18 3 -10 4 -4 3
13 -3 28 -1 30 33 32 l35 3 -27 -26 c-16 -14 -28 -31 -28 -38 0 -7 4 -6 10 3
8 12 13 13 30 3 11 -7 30 -13 42 -13 17 0 19 3 9 9 -8 5 -9 11 -3 15 11 7 22
-16 22 -48 0 -12 9 -28 20 -36 11 -8 20 -20 20 -27 0 -18 -50 -49 -58 -36 -9
14 -52 10 -61 -5 -4 -7 -21 -12 -38 -10 -29 2 -32 8 -24 50 0 3 10 4 20 1 13
-3 18 -11 15 -21 -5 -15 -4 -15 6 0 8 13 7 22 -7 38 -10 11 -23 20 -30 20 -7
0 -13 4 -13 10 0 5 -16 9 -35 7 -19 -1 -35 -6 -35 -12 0 -5 -4 -4 -9 3 -7 11
-9 10 -15 -3 -5 -15 -8 -15 -21 -1 -19 18 -19 26 0 26 8 0 12 6 9 15 -5 11
-10 9 -27 -9 -16 -17 -28 -21 -47 -16 -14 3 -34 6 -45 5 -19 0 -33 17 -34 43
-1 6 6 12 15 12 8 0 12 5 8 11 -5 8 -1 8 14 0 32 -17 102 -14 102 4 0 8 7 15
15 15 8 0 15 4 15 9 0 8 27 6 80 -6z m-1023 -45 c-3 -8 -6 -5 -6 6 -1 11 2 17
5 13 3 -3 4 -12 1 -19z m1413 -163 c0 -69 -3 -125 -7 -125 -5 0 -8 21 -8 48
-1 26 -2 67 -3 92 -2 44 6 110 14 110 2 0 4 -56 4 -125z m-576 70 c-4 -8 -8
-15 -10 -15 -2 0 -4 7 -4 15 0 8 4 15 10 15 5 0 7 -7 4 -15z m-114 -5 c0 -5
-4 -10 -10 -10 -5 0 -10 5 -10 10 0 6 5 10 10 10 6 0 10 -4 10 -10z m142 -42
c-12 -12 -42 -4 -42 11 0 5 9 7 20 4 13 -3 20 0 21 8 0 12 2 12 6 1 3 -8 1
-18 -5 -24z m-82 10 c26 1 31 -1 19 -8 -9 -5 -32 -10 -52 -12 -21 -1 -37 -6
-37 -10 0 -4 5 -8 11 -8 5 0 7 -4 4 -10 -3 -5 -2 -10 2 -10 9 0 10 -7 16 -66
2 -17 7 -36 12 -44 5 -8 3 -11 -6 -8 -8 2 -15 17 -17 31 -2 15 -7 27 -11 27
-4 0 -8 13 -9 30 -1 16 -7 41 -12 56 -13 33 -4 47 23 37 12 -4 38 -6 57 -5z
m200 8 c0 -2 -9 -6 -20 -9 -11 -3 -20 -1 -20 4 0 5 9 9 20 9 11 0 20 -2 20 -4z
m-682 -27 c-14 -8 -16 -18 -12 -44 5 -35 48 -120 65 -130 14 -9 11 -25 -4 -25
-8 0 -22 -10 -33 -22 -15 -19 -16 -20 -1 -9 9 7 17 10 17 6 0 -5 9 0 20 10 11
10 23 15 27 11 10 -10 -9 -25 -44 -35 -26 -7 -38 -5 -67 15 -20 14 -36 27 -36
30 0 2 11 -3 24 -12 l25 -16 -4 106 c-4 87 -2 108 11 121 9 9 19 13 23 10 3
-4 -2 -11 -11 -16z m682 1 c0 -5 -19 -9 -42 -9 l-43 2 40 7 c22 4 41 8 43 9 1
0 2 -3 2 -9z m161 -13 c-10 -9 -11 -8 -5 6 3 10 9 15 12 12 3 -3 0 -11 -7 -18z
m-632 -58 c12 -17 20 -37 17 -45 -3 -7 -2 -13 2 -11 4 1 18 -6 31 -15 l24 -17
-27 -7 c-15 -3 -30 -4 -33 0 -4 3 5 6 18 7 18 1 15 4 -16 14 -27 8 -40 18 -39
29 1 9 -2 16 -6 16 -4 0 -7 14 -8 30 -1 38 8 38 37 -1z m661 -31 c0 -23 -3
-29 -11 -21 -6 6 -8 20 -4 32 9 30 15 26 15 -11z m237 -54 c-3 -3 -12 -4 -19
-1 -8 3 -5 6 6 6 11 1 17 -2 13 -5z m-307 -14 c-8 -5 -19 -10 -25 -10 -5 0 -3
5 5 10 8 5 20 10 25 10 6 0 3 -5 -5 -10z m268 -7 c-15 -2 -42 -2 -60 0 -18 2
-6 4 27 4 33 0 48 -2 33 -4z m-378 -18 c0 -8 -4 -15 -10 -15 -5 0 -7 7 -4 15
4 8 8 15 10 15 2 0 4 -7 4 -15z m56 -22 c-11 -11 -17 4 -9 23 7 18 8 18 11 1
2 -10 1 -21 -2 -24z m217 30 c-7 -2 -19 -2 -25 0 -7 3 -2 5 12 5 14 0 19 -2
13 -5z m-861 -105 c50 -10 51 -12 25 -19 -30 -8 -70 2 -82 20 -8 14 -8 14 57
-1z m1203 -126 c-3 -3 -11 0 -18 7 -9 10 -8 11 6 5 10 -3 15 -9 12 -12z
m-1147 -42 c-3 -16 -1 -30 3 -30 4 0 11 -14 14 -32 6 -23 3 -35 -9 -43 -10 -8
-14 -19 -10 -29 6 -15 7 -15 20 1 12 17 13 16 7 -4 -3 -13 -9 -23 -14 -23 -5
0 -3 -15 4 -32 8 -18 14 -37 15 -43 1 -5 11 -11 22 -13 21 -3 21 -4 3 -17 -28
-22 -40 -18 -47 18 -4 17 -15 50 -25 72 l-19 40 -1 -30 c-1 -17 4 -36 11 -43
7 -7 8 -12 2 -12 -5 0 -2 -5 6 -10 11 -7 12 -10 2 -10 -10 0 -9 -5 3 -17 16
-16 16 -17 -1 -30 -16 -12 -16 -13 -1 -13 9 0 17 -7 17 -15 0 -8 -5 -15 -11
-15 -5 0 -7 -4 -4 -10 3 -5 2 -10 -4 -10 -9 0 -31 60 -31 88 0 6 -7 12 -15 12
-12 0 -13 -4 -6 -19 6 -10 8 -21 5 -24 -3 -3 -1 -15 6 -26 9 -18 8 -21 -10
-21 -12 0 -20 6 -18 13 1 6 -3 21 -9 32 -6 11 -11 23 -11 28 0 4 -3 21 -7 37
-6 26 -11 30 -33 27 -22 -3 -27 -9 -27 -31 -1 -24 2 -26 30 -21 24 4 26 3 10
-4 -37 -17 -53 -13 -57 17 -2 22 -7 26 -25 24 -22 -3 -23 -1 -23 86 l0 90 31
6 c48 9 57 8 62 -11 4 -15 5 -14 6 3 1 14 13 26 39 37 31 13 87 33 101 36 2 1
1 -12 -1 -29z m1307 -38 c-3 -3 -11 0 -18 7 -9 10 -8 11 6 5 10 -3 15 -9 12
-12z m105 -57 c11 -13 10 -14 -4 -9 -9 3 -16 10 -16 15 0 13 6 11 20 -6z
m-985 -45 c3 -5 1 -10 -4 -10 -6 0 -11 5 -11 10 0 6 2 10 4 10 3 0 8 -4 11
-10z m-789 -39 c-4 -5 -14 -8 -24 -7 -12 2 -18 -5 -22 -25 -4 -21 -9 -26 -19
-20 -9 6 -11 18 -7 35 5 22 12 26 42 26 19 0 33 -4 30 -9z m-86 -21 c0 -11 -4
-20 -9 -20 -5 0 -7 9 -4 20 3 11 7 20 9 20 2 0 4 -9 4 -20z m-40 6 c0 -3 -4
-8 -10 -11 -5 -3 -10 -1 -10 4 0 6 5 11 10 11 6 0 10 -2 10 -4z m103 -26 c-3
-11 -7 -20 -9 -20 -2 0 -4 9 -4 20 0 11 4 20 9 20 5 0 7 -9 4 -20z m257 -5 c0
-8 -4 -15 -8 -15 -5 0 -9 7 -9 15 0 8 4 15 9 15 4 0 8 -7 8 -15z m207 9 c-3
-3 -12 -4 -19 -1 -8 3 -5 6 6 6 11 1 17 -2 13 -5z m312 -8 c-12 -10 -69 -24
-69 -16 0 5 10 11 23 13 31 6 51 8 46 3z m-652 -22 c-3 -3 -12 -4 -19 -1 -8 3
-5 6 6 6 11 1 17 -2 13 -5z m63 -6 c0 -11 -12 -10 -30 2 -12 7 -10 9 8 7 12 0
22 -5 22 -9z m593 5 c-19 -7 -16 -20 12 -60 13 -20 22 -40 19 -45 -3 -4 2 -8
10 -8 9 0 16 -7 16 -15 0 -8 -5 -15 -11 -15 -5 0 -7 5 -4 10 3 6 2 10 -4 10
-6 0 -17 15 -26 34 -9 19 -23 37 -31 40 -29 11 -13 54 21 54 6 0 4 -2 -2 -5z
m22 -23 c3 -5 1 -10 -4 -10 -6 0 -11 5 -11 10 0 6 2 10 4 10 3 0 8 -4 11 -10z
m-622 -7 c-7 -2 -19 -2 -25 0 -7 3 -2 5 12 5 14 0 19 -2 13 -5z m41 -18 c3 -8
1 -15 -4 -15 -6 0 -10 7 -10 15 0 8 2 15 4 15 2 0 6 -7 10 -15z m221 -13 c0
-18 -20 -15 -23 4 -3 10 1 15 10 12 7 -3 13 -10 13 -16z m190 -3 c11 -17 -1
-21 -15 -4 -8 9 -8 15 -2 15 6 0 14 -5 17 -11z m-178 -44 c0 -8 -4 -15 -9 -15
-4 0 -8 7 -8 15 0 8 4 15 8 15 5 0 9 -7 9 -15z m-62 -15 c3 -6 -1 -7 -9 -4
-18 7 -21 14 -7 14 6 0 13 -4 16 -10z m325 -26 c0 -2 -7 -4 -15 -4 -8 0 -15 4
-15 10 0 5 7 7 15 4 8 -4 15 -8 15 -10z m37 10 c-3 -3 -12 -4 -19 -1 -8 3 -5
6 6 6 11 1 17 -2 13 -5z m103 -24 c0 -5 -2 -10 -4 -10 -3 0 -8 5 -11 10 -3 6
-1 10 4 10 6 0 11 -4 11 -10z m20 -30 c0 -5 -4 -10 -10 -10 -5 0 -10 5 -10 10
0 6 5 10 10 10 6 0 10 -4 10 -10z m42 -26 c-12 -8 -28 -12 -34 -8 -9 6 -5 10
12 15 41 11 46 10 22 -7z m-52 -14 c0 -5 -4 -10 -10 -10 -5 0 -10 5 -10 10 0
6 5 10 10 10 6 0 10 -4 10 -10z m-90 -30 c0 -5 -7 -10 -16 -10 -8 0 -12 5 -9
10 3 6 10 10 16 10 5 0 9 -4 9 -10z m170 -30 c0 -5 -7 -7 -15 -4 -8 4 -12 10
-9 15 6 11 24 2 24 -11z"/>
<path d="M470 1420 c0 -18 4 -29 10 -25 6 3 10 15 10 25 0 10 -4 22 -10 25 -6
4 -10 -7 -10 -25z"/>
<path d="M470 1341 c0 -6 5 -13 10 -16 6 -3 10 1 10 9 0 9 -4 16 -10 16 -5 0
-10 -4 -10 -9z"/>
<path d="M430 1136 c0 -2 7 -6 15 -10 8 -3 15 -1 15 4 0 6 -7 10 -15 10 -8 0
-15 -2 -15 -4z"/>
<path d="M1073 1183 c9 -2 25 -2 35 0 9 3 1 5 -18 5 -19 0 -27 -2 -17 -5z"/>
<path d="M893 1153 c15 -2 39 -2 55 0 15 2 2 4 -28 4 -30 0 -43 -2 -27 -4z"/>
<path d="M1180 1126 c0 -14 5 -26 10 -26 6 0 10 9 10 19 0 11 -4 23 -10 26 -6
4 -10 -5 -10 -19z"/>
<path d="M453 376 c4 -10 7 -24 7 -32 0 -8 4 -14 9 -14 11 0 1 49 -12 57 -7 4
-8 0 -4 -11z"/>
<path d="M1127 1639 c-21 -3 -45 -13 -54 -22 -14 -13 -13 -16 7 -22 12 -4 26
-16 31 -28 8 -19 9 -19 5 -2 -2 11 -7 27 -10 36 -5 10 -1 19 8 22 10 4 13 1 9
-9 -3 -7 0 -14 6 -14 6 0 11 -7 11 -15 0 -8 4 -15 9 -15 11 0 22 -38 12 -44
-4 -3 -5 -22 -2 -43 l5 -38 7 43 c6 33 4 56 -10 93 -22 57 -19 62 9 17 l20
-33 0 27 c0 22 4 26 18 21 9 -3 14 -3 10 1 -3 4 -14 9 -23 10 -9 1 -20 7 -23
12 -4 6 -24 7 -45 3z"/>
<path d="M992 1610 c0 -14 2 -19 5 -12 2 6 2 18 0 25 -3 6 -5 1 -5 -13z"/>
<path d="M1018 1623 c7 -3 16 -2 19 1 4 3 -2 6 -13 5 -11 0 -14 -3 -6 -6z"/>
<path d="M1010 1589 c0 -12 5 -16 15 -13 8 4 15 12 15 18 0 7 -7 13 -15 13 -8
0 -15 -8 -15 -18z"/>
<path d="M955 1581 c-3 -11 -8 -29 -10 -41 -3 -18 -2 -20 10 -10 10 8 20 8 32
2 13 -8 20 -6 29 6 10 14 11 12 7 -12 -4 -21 -10 -26 -24 -23 -25 7 -24 3 5
-25 26 -26 46 -33 46 -18 0 5 -4 10 -9 10 -17 0 -6 65 11 68 9 2 18 9 21 16 4
10 -8 11 -51 5 -52 -7 -84 -2 -54 8 14 5 17 33 3 33 -5 0 -12 -9 -16 -19z"/>
<path d="M1220 1566 c0 -15 20 -44 20 -29 0 6 2 18 5 26 4 8 0 14 -10 14 -8 0
-15 -5 -15 -11z"/>
<path d="M871 1524 c0 -11 3 -14 6 -6 3 7 2 16 -1 19 -3 4 -6 -2 -5 -13z"/>
<path d="M890 1536 c0 -2 7 -7 16 -10 8 -3 12 -2 9 4 -6 10 -25 14 -25 6z"/>
<path d="M2144 1291 c3 -4 34 -7 68 -6 35 1 71 -2 81 -7 9 -5 17 -5 17 0 0 10
133 7 151 -3 7 -5 10 -4 6 2 -4 6 13 10 43 9 27 0 46 -5 42 -10 -3 -5 2 -6 12
-3 10 4 20 7 22 7 2 0 4 5 4 10 0 6 -82 10 -226 10 -124 0 -223 -4 -220 -9z"/>
<path d="M2126 1261 c-5 -7 13 -11 56 -12 329 -6 408 -5 408 2 0 5 -64 9 -142
9 -79 1 -182 3 -229 6 -57 4 -89 2 -93 -5z"/>
<path d="M2110 1228 c0 -4 21 -9 48 -9 26 -1 65 -3 87 -5 39 -2 212 -13 289
-17 22 -1 41 -6 43 -12 4 -13 -456 8 -479 22 -5 2 -8 -2 -8 -9 0 -9 17 -13 58
-14 31 0 98 -4 147 -9 50 -4 119 -9 155 -10 36 -1 67 -4 70 -5 3 -1 13 -1 23
0 10 1 24 -3 31 -9 9 -8 12 -1 13 29 l1 40 -122 0 c-66 0 -155 3 -196 6 -41 3
-94 6 -117 8 -24 1 -43 -1 -43 -6z"/>
<path d="M2030 1167 c3 -3 32 -8 65 -11 168 -15 211 -19 228 -18 9 0 17 -2 17
-6 0 -4 35 -7 78 -7 42 0 93 -3 111 -7 19 -4 42 -3 50 1 21 12 -20 19 -169 26
-69 4 -138 8 -155 10 -74 9 -229 17 -225 12z"/>
<path d="M1826 1118 c-9 -12 -16 -33 -16 -45 0 -19 5 -23 31 -23 28 0 31 3 25
24 -3 13 -9 31 -12 39 -3 10 1 17 13 20 15 4 14 5 -4 6 -12 0 -29 -9 -37 -21z"/>
<path d="M2021 1136 c4 -4 82 -15 149 -21 19 -2 60 -6 90 -9 30 -4 75 -9 100
-11 80 -9 233 -15 228 -9 -3 3 -34 7 -69 10 -35 3 -153 14 -261 24 -199 20
-245 23 -237 16z"/>
<path d="M2028 1103 c12 -2 22 -9 22 -15 0 -6 3 -8 7 -5 3 4 11 1 17 -7 14
-16 103 -36 192 -41 63 -4 65 -3 25 5 -25 5 -63 12 -85 15 -98 13 -115 17
-120 31 -3 8 -2 13 3 10 5 -3 30 -8 57 -11 27 -3 65 -7 84 -10 45 -6 116 -15
160 -20 19 -2 60 -6 90 -10 29 -3 56 -7 60 -7 3 0 16 1 30 2 42 4 -28 17 -132
25 -49 3 -95 8 -102 10 -6 2 -45 6 -85 10 -41 3 -97 10 -124 16 -28 5 -66 8
-86 8 -23 -1 -28 -3 -13 -6z"/>
<path d="M1938 1031 c21 -18 15 -40 -7 -27 -10 6 -25 -24 -16 -32 3 -3 5 0 5
6 0 7 5 12 11 12 5 0 7 -6 4 -12 -4 -7 0 -5 8 5 19 22 30 22 22 -2 -4 -15 0
-18 22 -17 21 1 29 7 31 22 2 16 10 21 28 20 29 -1 30 -4 7 -22 -17 -13 -17
-14 2 -7 18 6 19 5 5 -13 -12 -17 -12 -17 0 -6 8 7 15 18 15 24 0 6 6 13 14
16 8 3 11 0 8 -5 -3 -5 0 -10 8 -10 8 0 12 4 9 8 -6 10 36 3 45 -7 3 -4 -2 -4
-11 -1 -19 7 -21 -15 -4 -42 6 -9 5 -12 -1 -8 -6 4 -18 -2 -27 -12 -11 -12
-13 -21 -7 -25 11 -7 6 -45 -9 -60 -5 -5 -13 -6 -17 -2 -4 4 -3 10 3 14 6 4
14 16 17 27 5 14 1 12 -14 -8 -20 -26 -47 -29 -33 -4 5 8 3 8 -7 0 -7 -7 -20
-13 -28 -13 -14 1 -13 3 2 14 9 7 17 17 17 21 0 5 -11 -2 -25 -15 -22 -21 -29
-20 -26 2 1 8 -20 5 -35 -5 -7 -4 -15 0 -18 9 -4 9 -2 13 5 8 8 -4 8 0 0 14
-6 12 -16 24 -23 28 -7 5 -8 3 -3 -5 4 -7 -2 -22 -16 -37 l-22 -24 34 -2 c58
-3 64 -4 77 -11 6 -5 12 -6 12 -4 0 3 20 -1 45 -9 25 -7 53 -10 62 -7 11 4 14
3 9 -5 -5 -8 1 -12 17 -12 22 0 25 5 30 55 3 30 13 62 21 71 9 8 16 25 16 37
0 18 -2 19 -10 7 -8 -12 -10 -11 -10 7 0 24 -15 39 -24 24 -4 -5 -23 -5 -48 1
-24 5 -61 7 -83 4 -28 -5 -36 -3 -25 4 12 8 9 10 -13 10 -16 0 -38 5 -50 11
-22 10 -22 10 1 -10z m63 -54 c-13 -13 -26 -3 -16 12 3 6 11 8 17 5 6 -4 6
-10 -1 -17z"/>
<path d="M2520 1006 c36 -6 67 -11 69 -9 10 7 -8 12 -69 17 l-65 5 65 -13z"/>
<path d="M2106 958 c4 -5 -2 -15 -12 -22 -21 -16 -27 -43 -8 -43 7 0 11 3 9 7
-2 4 3 16 13 26 22 25 25 41 7 41 -8 0 -12 -4 -9 -9z"/>
<path d="M2283 941 c1 -17 6 -31 10 -31 5 0 6 -4 3 -8 -3 -5 1 -9 9 -9 11 0
12 4 4 14 -6 7 -8 21 -5 30 6 14 9 15 15 4 6 -9 11 -10 15 -2 4 6 12 9 17 6
11 -7 12 -26 2 -22 -5 1 -9 -1 -10 -5 -6 -17 -2 -20 12 -8 10 8 15 9 15 2 0
-6 -8 -15 -17 -20 -13 -8 -10 -10 14 -9 26 2 30 4 22 19 -10 18 -2 27 30 33
13 2 18 -1 15 -10 -3 -8 -14 -11 -27 -7 -13 3 -18 1 -14 -4 5 -5 10 -7 12 -4
3 5 45 -44 45 -52 0 -3 -7 -5 -15 -5 -8 0 -15 4 -15 9 0 5 -4 6 -10 3 -5 -3
-10 -11 -10 -16 0 -6 5 -7 10 -4 6 3 10 2 10 -2 0 -5 9 -14 19 -20 17 -11 19
-10 16 7 -2 11 0 20 5 20 4 0 7 8 5 18 -2 9 -4 21 -4 26 -1 4 -8 6 -15 3 -10
-4 -13 -1 -9 9 4 10 9 12 18 4 6 -5 16 -6 20 -2 5 4 5 2 2 -4 -4 -7 0 -17 8
-24 8 -7 15 -19 15 -27 0 -9 6 -13 14 -10 9 4 13 0 11 -11 -1 -9 2 -23 8 -29
6 -9 6 -13 -1 -13 -15 0 -33 26 -24 35 4 5 1 5 -5 1 -7 -4 -13 -2 -13 3 0 6
-5 11 -12 11 -6 0 -1 -11 12 -25 13 -14 18 -25 12 -25 -6 0 -14 5 -17 10 -4 6
-11 8 -16 4 -6 -4 -5 -12 5 -22 8 -10 15 -21 14 -25 0 -5 3 -11 6 -13 3 -2 4
-1 1 3 -6 8 28 33 37 27 5 -3 8 -10 8 -15 0 -6 -5 -7 -12 -3 -6 4 -8 3 -5 -3
8 -12 -13 -23 -46 -24 -21 0 -21 -1 -2 -9 28 -12 47 -12 40 0 -6 9 8 14 28 11
5 -1 5 4 1 10 -4 7 -2 10 7 7 8 -3 13 -11 12 -17 -2 -6 4 -11 12 -11 21 0 19
13 -5 28 -12 7 -18 18 -14 24 4 7 3 8 -4 4 -7 -4 -12 -2 -12 4 0 6 8 10 18 8
9 -2 17 -8 17 -15 0 -6 2 -14 5 -17 3 -3 5 38 5 91 0 83 -3 97 -18 99 -20 3
-22 -7 -4 -25 10 -11 10 -13 0 -7 -7 4 -13 2 -13 -4 0 -7 7 -10 14 -7 10 4 13
1 9 -8 -3 -8 -9 -12 -14 -9 -5 3 -9 0 -9 -6 0 -6 -5 -8 -12 -4 -9 5 -9 2 1 -9
8 -10 9 -17 3 -17 -15 0 -70 49 -55 50 6 0 14 -4 18 -10 8 -13 35 -1 35 16 0
8 -4 14 -10 14 -5 0 -10 5 -10 11 0 5 5 7 10 4 6 -3 10 -2 10 4 0 5 -9 9 -19
8 -10 0 -17 -6 -14 -13 2 -7 -1 -15 -8 -20 -7 -4 -10 -3 -5 4 3 6 2 13 -3 16
-5 4 -12 2 -16 -4 -4 -6 -11 -8 -16 -4 -5 3 -7 9 -4 13 6 11 -56 8 -72 -2 -9
-5 -11 -3 -8 5 4 10 -5 14 -27 16 -18 1 -41 5 -50 8 -14 4 -17 -1 -15 -25z
m241 -42 c-3 -5 -10 -7 -15 -3 -5 3 -7 10 -3 15 3 5 10 7 15 3 5 -3 7 -10 3
-15z m53 -34 c0 -8 -5 -15 -10 -15 -6 0 -6 -5 0 -12 6 -7 10 -21 10 -30 0 -15
-3 -15 -15 -5 -8 6 -18 11 -21 10 -13 -6 -6 23 9 34 8 7 11 13 5 13 -7 0 12
18 21 20 0 0 1 -7 1 -15z m-65 -79 c10 6 11 4 0 -7 -10 -11 -15 -10 -30 6 -15
17 -15 18 0 6 9 -7 23 -9 30 -5z"/>
<path d="M2556 827 c3 -10 9 -15 12 -12 3 3 0 11 -7 18 -10 9 -11 8 -5 -6z"/>
<path d="M2010 950 c-8 -5 -22 -7 -32 -4 -9 2 -19 0 -23 -5 -3 -6 0 -8 8 -5 8
3 18 -5 25 -18 7 -14 11 -17 9 -6 -1 9 7 24 18 32 22 17 19 21 -5 6z"/>
<path d="M1861 934 c0 -11 3 -14 6 -6 3 7 2 16 -1 19 -3 4 -6 -2 -5 -13z"/>
<path d="M2047 899 c4 -13 8 -18 11 -10 2 7 -1 18 -6 23 -8 8 -9 4 -5 -13z"/>
<path d="M2290 860 c5 -10 7 -19 5 -22 -3 -3 2 -5 10 -5 11 0 12 4 4 13 -6 7
-8 17 -5 22 3 5 -1 9 -9 9 -10 0 -11 -5 -5 -17z"/>
<path d="M2336 853 c-6 -14 -5 -15 5 -6 7 7 10 15 7 18 -3 3 -9 -2 -12 -12z"/>
<path d="M2363 855 c0 -6 6 -12 12 -12 6 0 12 6 12 12 0 6 -6 12 -12 12 -6 0
-12 -6 -12 -12z"/>
<path d="M2353 815 c0 -6 6 -12 12 -12 6 0 12 6 12 12 0 6 -6 12 -12 12 -6 0
-12 -6 -12 -12z"/>
<path d="M2397 816 c-4 -11 -3 -15 4 -10 7 4 10 1 7 -7 -3 -8 -11 -13 -17 -11
-18 4 -13 -15 7 -23 16 -6 16 -7 -3 -21 -19 -14 -19 -14 5 -11 14 2 24 7 23
10 -4 10 -4 10 -8 30 -3 16 7 22 29 18 5 -1 4 5 -3 13 -7 9 -17 14 -21 11 -5
-3 -10 0 -12 7 -3 7 -7 5 -11 -6z"/>
<path d="M2230 800 c-8 -5 -11 -12 -7 -16 3 -4 13 -1 21 5 10 8 16 9 21 1 3
-5 0 -10 -7 -10 -9 0 -9 -3 2 -10 32 -21 44 2 13 26 -22 16 -24 16 -43 4z"/>
<path d="M2344 763 c0 -12 6 -23 12 -23 17 0 27 17 14 25 -6 4 -8 10 -6 14 3
4 -1 8 -7 8 -7 0 -13 -11 -13 -24z"/>
<path d="M2443 772 c-9 -6 -7 -11 6 -19 15 -10 19 -9 17 2 -3 20 -10 25 -23
17z"/>
<path d="M957 749 c7 -7 15 -10 18 -7 3 3 -2 9 -12 12 -14 6 -15 5 -6 -5z"/>
<path d="M2568 703 c7 -3 16 -2 19 1 4 3 -2 6 -13 5 -11 0 -14 -3 -6 -6z"/>
<path d="M608 653 c6 -2 12 -10 12 -16 0 -7 9 -18 19 -24 16 -10 20 -9 25 3 3
9 1 12 -4 9 -6 -3 -10 0 -10 8 0 15 -21 28 -43 26 -8 0 -8 -2 1 -6z"/>
<path d="M697 653 c-15 -15 -5 -30 29 -42 19 -7 38 -11 40 -8 8 7 -46 38 -56
32 -6 -3 -7 1 -4 9 6 17 2 21 -9 9z"/>
<path d="M1730 550 c18 -12 30 -13 30 -2 0 4 -10 9 -22 9 -18 2 -20 0 -8 -7z"/>
<path d="M742 448 c8 -12 21 -24 28 -26 8 -3 6 5 -6 21 -23 32 -42 36 -22 5z"/>
<path d="M866 432 c-3 -5 1 -9 9 -9 8 0 12 4 9 9 -3 4 -7 8 -9 8 -2 0 -6 -4
-9 -8z"/>
<path d="M785 380 c4 -6 11 -8 16 -5 14 9 11 15 -7 15 -8 0 -12 -5 -9 -10z"/>
</g>
</svg>
